<svg width="1440" height="652" preserveAspectRatio="none" viewBox="0 0 1440 652" fill="none" xmlns="http://www.w3.org/2000/svg">
<path d="M1459 207.862C1367.93 -73.5174 1160.95 -23.8617 1103 207.862V572H1459V207.862Z" stroke="#ECE4E4" stroke-width="8"/>
<path d="M234.499 639.374H226.698L224.842 645H222.464L229.25 624.7H232.092L238.936 645H236.413L234.499 639.374ZM227.452 637.286H233.832L230.845 627.745H230.497L227.452 637.286ZM249.771 630.5H253.889V640.389C253.889 641.336 253.947 642.245 254.063 643.115H256.006V645H252.149L252.062 642.535H251.946C251.443 643.366 250.776 644.043 249.945 644.565C249.113 645.087 248.108 645.348 246.929 645.348C246.039 645.348 245.276 645.242 244.638 645.029C244.019 644.836 243.507 644.488 243.101 643.985C242.695 643.482 242.395 642.815 242.202 641.984C242.008 641.133 241.912 640.08 241.912 638.823V632.443H239.969V630.5H244.174V638.359C244.174 639.152 244.203 639.867 244.261 640.505C244.338 641.124 244.483 641.655 244.696 642.1C244.908 642.525 245.218 642.854 245.624 643.086C246.049 643.299 246.61 643.405 247.306 643.405C248.311 643.405 249.181 643.076 249.916 642.419C250.67 641.762 251.24 640.94 251.627 639.954V632.443H249.771V630.5ZM257.386 630.5H260.837V627.629L263.099 626.991V630.5H270.842V632.443H263.099V639.287C263.099 640.698 263.438 641.742 264.114 642.419C264.81 643.096 265.796 643.434 267.072 643.434C267.942 643.434 268.696 643.27 269.334 642.941C269.992 642.612 270.581 642.255 271.103 641.868L271.857 643.579C271.181 644.12 270.369 644.555 269.421 644.884C268.493 645.213 267.536 645.377 266.55 645.377C265.777 645.377 265.042 645.261 264.346 645.029C263.67 644.816 263.07 644.478 262.548 644.014C262.026 643.55 261.611 642.96 261.301 642.245C260.992 641.51 260.837 640.64 260.837 639.635V632.443H257.386V630.5ZM273.847 624.7H278.371V632.298H278.516C279.115 631.621 279.811 631.099 280.604 630.732C281.397 630.345 282.383 630.152 283.562 630.152C284.49 630.152 285.292 630.249 285.969 630.442C286.665 630.635 287.226 630.974 287.651 631.457C288.096 631.94 288.424 632.607 288.637 633.458C288.85 634.289 288.956 635.353 288.956 636.648V645H286.694V637.083C286.694 636.252 286.646 635.527 286.549 634.908C286.452 634.289 286.259 633.777 285.969 633.371C285.698 632.946 285.321 632.627 284.838 632.414C284.355 632.201 283.736 632.095 282.982 632.095C282.46 632.095 281.948 632.192 281.445 632.385C280.942 632.559 280.478 632.81 280.053 633.139C279.647 633.448 279.289 633.835 278.98 634.299C278.69 634.744 278.487 635.237 278.371 635.778V645H276.138V626.643H273.847V624.7ZM299.994 642.767H301.096L304.692 630.5H307.041L303.01 643.521C302.797 644.198 302.575 644.961 302.343 645.812C302.13 646.682 301.821 647.494 301.415 648.248C301.009 649.002 300.458 649.64 299.762 650.162C299.066 650.684 298.157 650.945 297.036 650.945C296.784 650.945 296.514 650.916 296.224 650.858C295.953 650.8 295.682 650.723 295.412 650.626C295.141 650.549 294.89 650.452 294.658 650.336C294.426 650.22 294.252 650.104 294.136 649.988L294.948 647.9C295.064 647.997 295.218 648.093 295.412 648.19C295.624 648.287 295.847 648.364 296.079 648.422C296.33 648.499 296.572 648.557 296.804 648.596C297.036 648.654 297.229 648.683 297.384 648.683C298.834 648.683 299.82 647.455 300.342 645H298.399L292.309 630.5H294.919L299.994 642.767ZM328.507 645V643.057H333.553V632.443H328.507V630.5H335.873V643.057H340.803V645H328.507ZM332.77 626.382C332.77 625.86 332.944 625.415 333.292 625.048C333.64 624.661 334.085 624.468 334.626 624.468C335.187 624.468 335.651 624.661 336.018 625.048C336.405 625.415 336.598 625.86 336.598 626.382C336.598 626.885 336.405 627.31 336.018 627.658C335.651 628.006 335.187 628.18 334.626 628.18C334.085 628.18 333.64 628.006 333.292 627.658C332.944 627.31 332.77 626.885 332.77 626.382ZM355.408 641.085C355.408 640.466 355.166 639.993 354.683 639.664C354.199 639.316 353.6 639.045 352.885 638.852C352.169 638.639 351.386 638.446 350.536 638.272C349.704 638.098 348.931 637.866 348.216 637.576C347.5 637.286 346.901 636.899 346.418 636.416C345.934 635.913 345.693 635.217 345.693 634.328C345.693 633.593 345.847 632.965 346.157 632.443C346.485 631.921 346.911 631.496 347.433 631.167C347.955 630.819 348.564 630.568 349.26 630.413C349.956 630.239 350.681 630.152 351.435 630.152C352.788 630.152 353.948 630.326 354.915 630.674C355.901 631.003 356.684 631.351 357.264 631.718L356.336 633.545C355.698 633.197 355.002 632.868 354.248 632.559C353.513 632.23 352.585 632.066 351.464 632.066C351.038 632.066 350.613 632.114 350.188 632.211C349.782 632.288 349.405 632.414 349.057 632.588C348.728 632.762 348.457 632.994 348.245 633.284C348.051 633.555 347.955 633.893 347.955 634.299C347.955 634.802 348.196 635.188 348.68 635.459C349.163 635.73 349.762 635.962 350.478 636.155C351.193 636.329 351.966 636.503 352.798 636.677C353.648 636.832 354.431 637.064 355.147 637.373C355.862 637.682 356.461 638.098 356.945 638.62C357.428 639.142 357.67 639.848 357.67 640.737C357.67 642.071 357.138 643.173 356.075 644.043C355.031 644.913 353.455 645.348 351.348 645.348C350.71 645.348 350.081 645.29 349.463 645.174C348.844 645.058 348.264 644.903 347.723 644.71C347.181 644.517 346.688 644.304 346.244 644.072C345.799 643.821 345.432 643.569 345.142 643.318L346.302 641.433C346.534 641.665 346.843 641.907 347.23 642.158C347.616 642.39 348.042 642.603 348.506 642.796C348.97 642.989 349.463 643.144 349.985 643.26C350.526 643.376 351.067 643.434 351.609 643.434C352.131 643.434 352.614 643.395 353.059 643.318C353.523 643.221 353.929 643.086 354.277 642.912C354.625 642.719 354.895 642.477 355.089 642.187C355.301 641.878 355.408 641.51 355.408 641.085ZM378.092 630.5H381.543V627.629L383.805 626.991V630.5H391.548V632.443H383.805V639.287C383.805 640.698 384.143 641.742 384.82 642.419C385.516 643.096 386.502 643.434 387.778 643.434C388.648 643.434 389.402 643.27 390.04 642.941C390.697 642.612 391.287 642.255 391.809 641.868L392.563 643.579C391.886 644.12 391.074 644.555 390.127 644.884C389.199 645.213 388.242 645.377 387.256 645.377C386.483 645.377 385.748 645.261 385.052 645.029C384.375 644.816 383.776 644.478 383.254 644.014C382.732 643.55 382.316 642.96 382.007 642.245C381.698 641.51 381.543 640.64 381.543 639.635V632.443H378.092V630.5ZM394.553 624.7H399.077V632.298H399.222C399.821 631.621 400.517 631.099 401.31 630.732C402.102 630.345 403.088 630.152 404.268 630.152C405.196 630.152 405.998 630.249 406.675 630.442C407.371 630.635 407.931 630.974 408.357 631.457C408.801 631.94 409.13 632.607 409.343 633.458C409.555 634.289 409.662 635.353 409.662 636.648V645H407.4V637.083C407.4 636.252 407.351 635.527 407.255 634.908C407.158 634.289 406.965 633.777 406.675 633.371C406.404 632.946 406.027 632.627 405.544 632.414C405.06 632.201 404.442 632.095 403.688 632.095C403.166 632.095 402.653 632.192 402.151 632.385C401.648 632.559 401.184 632.81 400.759 633.139C400.353 633.448 399.995 633.835 399.686 634.299C399.396 634.744 399.193 635.237 399.077 635.778V645H396.844V626.643H394.553V624.7ZM427.021 643.173C426.673 643.482 426.258 643.772 425.774 644.043C425.31 644.314 424.798 644.546 424.237 644.739C423.677 644.932 423.087 645.077 422.468 645.174C421.869 645.29 421.26 645.348 420.641 645.348C419.481 645.348 418.457 645.174 417.567 644.826C416.678 644.459 415.934 643.946 415.334 643.289C414.735 642.612 414.281 641.81 413.971 640.882C413.662 639.954 413.507 638.91 413.507 637.75C413.507 636.532 413.672 635.449 414 634.502C414.348 633.555 414.841 632.762 415.479 632.124C416.117 631.486 416.891 631.003 417.799 630.674C418.708 630.326 419.723 630.152 420.844 630.152C421.656 630.152 422.459 630.258 423.251 630.471C424.044 630.684 424.74 631.09 425.339 631.689C425.958 632.269 426.432 633.081 426.76 634.125C427.089 635.15 427.205 636.484 427.108 638.127H415.885C415.885 639.867 416.349 641.172 417.277 642.042C418.225 642.893 419.481 643.318 421.047 643.318C421.569 643.318 422.082 643.26 422.584 643.144C423.106 643.009 423.599 642.854 424.063 642.68C424.527 642.506 424.933 642.313 425.281 642.1C425.649 641.887 425.929 641.694 426.122 641.52L427.021 643.173ZM420.902 632.066C420.264 632.066 419.655 632.134 419.075 632.269C418.515 632.404 418.012 632.636 417.567 632.965C417.142 633.274 416.784 633.69 416.494 634.212C416.224 634.715 416.05 635.343 415.972 636.097H424.991C424.895 634.821 424.479 633.835 423.744 633.139C423.029 632.424 422.082 632.066 420.902 632.066ZM458.87 641.085C458.87 640.466 458.628 639.993 458.145 639.664C457.661 639.316 457.062 639.045 456.347 638.852C455.631 638.639 454.848 638.446 453.998 638.272C453.166 638.098 452.393 637.866 451.678 637.576C450.962 637.286 450.363 636.899 449.88 636.416C449.396 635.913 449.155 635.217 449.155 634.328C449.155 633.593 449.309 632.965 449.619 632.443C449.947 631.921 450.373 631.496 450.895 631.167C451.417 630.819 452.026 630.568 452.722 630.413C453.418 630.239 454.143 630.152 454.897 630.152C456.25 630.152 457.41 630.326 458.377 630.674C459.363 631.003 460.146 631.351 460.726 631.718L459.798 633.545C459.16 633.197 458.464 632.868 457.71 632.559C456.975 632.23 456.047 632.066 454.926 632.066C454.5 632.066 454.075 632.114 453.65 632.211C453.244 632.288 452.867 632.414 452.519 632.588C452.19 632.762 451.919 632.994 451.707 633.284C451.513 633.555 451.417 633.893 451.417 634.299C451.417 634.802 451.658 635.188 452.142 635.459C452.625 635.73 453.224 635.962 453.94 636.155C454.655 636.329 455.428 636.503 456.26 636.677C457.11 636.832 457.893 637.064 458.609 637.373C459.324 637.682 459.923 638.098 460.407 638.62C460.89 639.142 461.132 639.848 461.132 640.737C461.132 642.071 460.6 643.173 459.537 644.043C458.493 644.913 456.917 645.348 454.81 645.348C454.172 645.348 453.543 645.29 452.925 645.174C452.306 645.058 451.726 644.903 451.185 644.71C450.643 644.517 450.15 644.304 449.706 644.072C449.261 643.821 448.894 643.569 448.604 643.318L449.764 641.433C449.996 641.665 450.305 641.907 450.692 642.158C451.078 642.39 451.504 642.603 451.968 642.796C452.432 642.989 452.925 643.144 453.447 643.26C453.988 643.376 454.529 643.434 455.071 643.434C455.593 643.434 456.076 643.395 456.521 643.318C456.985 643.221 457.391 643.086 457.739 642.912C458.087 642.719 458.357 642.477 458.551 642.187C458.763 641.878 458.87 641.51 458.87 641.085ZM464.31 630.5H467.761V627.629L470.023 626.991V630.5H477.766V632.443H470.023V639.287C470.023 640.698 470.362 641.742 471.038 642.419C471.734 643.096 472.72 643.434 473.996 643.434C474.866 643.434 475.62 643.27 476.258 642.941C476.916 642.612 477.505 642.255 478.027 641.868L478.781 643.579C478.105 644.12 477.293 644.555 476.345 644.884C475.417 645.213 474.46 645.377 473.474 645.377C472.701 645.377 471.966 645.261 471.27 645.029C470.594 644.816 469.994 644.478 469.472 644.014C468.95 643.55 468.535 642.96 468.225 642.245C467.916 641.51 467.761 640.64 467.761 639.635V632.443H464.31V630.5ZM483.787 631.631C484.618 631.148 485.556 630.8 486.6 630.587C487.644 630.374 488.669 630.268 489.674 630.268C490.66 630.268 491.462 630.423 492.081 630.732C492.719 631.041 493.212 631.447 493.56 631.95C493.927 632.433 494.169 632.994 494.285 633.632C494.42 634.251 494.488 634.879 494.488 635.517C494.488 636.252 494.469 637.035 494.43 637.866C494.391 638.697 494.362 639.529 494.343 640.36C494.343 641.327 494.401 642.245 494.517 643.115H496.46V645H492.603L492.342 642.825H492.197C492.081 642.999 491.907 643.221 491.675 643.492C491.443 643.763 491.134 644.033 490.747 644.304C490.38 644.555 489.925 644.778 489.384 644.971C488.843 645.164 488.205 645.261 487.47 645.261C486.039 645.261 484.908 644.894 484.077 644.159C483.246 643.424 482.83 642.419 482.83 641.143C482.83 640.157 483.043 639.335 483.468 638.678C483.913 638.021 484.541 637.518 485.353 637.17C486.165 636.822 487.141 636.619 488.282 636.561C489.442 636.503 490.737 636.58 492.168 636.793C492.265 635.904 492.274 635.169 492.197 634.589C492.139 633.99 491.984 633.516 491.733 633.168C491.501 632.82 491.163 632.578 490.718 632.443C490.293 632.288 489.761 632.211 489.123 632.211C488.253 632.211 487.422 632.337 486.629 632.588C485.836 632.82 485.131 633.062 484.512 633.313L483.787 631.631ZM488.05 643.318C488.591 643.318 489.094 643.231 489.558 643.057C490.022 642.883 490.428 642.661 490.776 642.39C491.124 642.119 491.414 641.829 491.646 641.52C491.878 641.191 492.052 640.882 492.168 640.592V638.562C491.163 638.388 490.235 638.301 489.384 638.301C488.533 638.301 487.799 638.398 487.18 638.591C486.561 638.765 486.078 639.045 485.73 639.432C485.382 639.819 485.208 640.321 485.208 640.94C485.208 641.578 485.421 642.139 485.846 642.622C486.291 643.086 487.025 643.318 488.05 643.318ZM500.596 635.575C500.596 635.401 500.586 635.179 500.567 634.908C500.567 634.618 500.557 634.328 500.538 634.038C500.518 633.729 500.489 633.429 500.451 633.139C500.431 632.849 500.402 632.598 500.364 632.385H498.421V630.5H502.307L502.568 632.849H502.713C502.906 632.52 503.157 632.201 503.467 631.892C503.795 631.563 504.172 631.273 504.598 631.022C505.023 630.751 505.497 630.539 506.019 630.384C506.541 630.229 507.092 630.152 507.672 630.152C508.561 630.152 509.344 630.249 510.021 630.442C510.717 630.635 511.287 630.983 511.732 631.486C512.196 631.969 512.544 632.636 512.776 633.487C513.008 634.318 513.124 635.382 513.124 636.677V645H510.862V637.112C510.862 635.507 510.601 634.299 510.079 633.487C509.557 632.675 508.609 632.269 507.237 632.269C506.734 632.269 506.241 632.375 505.758 632.588C505.294 632.781 504.868 633.042 504.482 633.371C504.095 633.7 503.757 634.086 503.467 634.531C503.177 634.956 502.964 635.411 502.829 635.894V645H500.596V635.575ZM525.263 624.7H529.961V640.041C529.961 640.215 529.971 640.437 529.99 640.708C530.01 640.959 530.029 641.23 530.048 641.52C530.087 641.81 530.126 642.1 530.164 642.39C530.203 642.661 530.242 642.902 530.28 643.115H532.223V645H528.366L528.076 642.767H527.96C527.535 643.502 526.897 644.12 526.046 644.623C525.215 645.106 524.248 645.348 523.146 645.348C520.962 645.348 519.347 644.739 518.303 643.521C517.279 642.284 516.766 640.37 516.766 637.779C516.766 636.561 516.94 635.488 517.288 634.56C517.636 633.613 518.129 632.83 518.767 632.211C519.425 631.573 520.208 631.09 521.116 630.761C522.025 630.432 523.04 630.268 524.161 630.268C524.567 630.268 524.925 630.278 525.234 630.297C525.563 630.316 525.863 630.345 526.133 630.384C526.404 630.423 526.655 630.481 526.887 630.558C527.139 630.616 527.409 630.684 527.699 630.761V626.643H525.263V624.7ZM523.523 643.405C524.703 643.405 525.631 643.105 526.307 642.506C526.984 641.887 527.448 640.969 527.699 639.751V633.023C527.274 632.733 526.791 632.52 526.249 632.385C525.727 632.25 525.031 632.182 524.161 632.182C522.615 632.182 521.397 632.636 520.507 633.545C519.618 634.434 519.173 635.846 519.173 637.779C519.173 638.572 519.241 639.316 519.376 640.012C519.531 640.689 519.773 641.278 520.101 641.781C520.449 642.284 520.904 642.68 521.464 642.97C522.025 643.26 522.711 643.405 523.523 643.405ZM535.518 631.631C536.349 631.148 537.287 630.8 538.331 630.587C539.375 630.374 540.4 630.268 541.405 630.268C542.391 630.268 543.193 630.423 543.812 630.732C544.45 631.041 544.943 631.447 545.291 631.95C545.658 632.433 545.9 632.994 546.016 633.632C546.151 634.251 546.219 634.879 546.219 635.517C546.219 636.252 546.2 637.035 546.161 637.866C546.122 638.697 546.093 639.529 546.074 640.36C546.074 641.327 546.132 642.245 546.248 643.115H548.191V645H544.334L544.073 642.825H543.928C543.812 642.999 543.638 643.221 543.406 643.492C543.174 643.763 542.865 644.033 542.478 644.304C542.111 644.555 541.656 644.778 541.115 644.971C540.574 645.164 539.936 645.261 539.201 645.261C537.77 645.261 536.639 644.894 535.808 644.159C534.977 643.424 534.561 642.419 534.561 641.143C534.561 640.157 534.774 639.335 535.199 638.678C535.644 638.021 536.272 637.518 537.084 637.17C537.896 636.822 538.872 636.619 540.013 636.561C541.173 636.503 542.468 636.58 543.899 636.793C543.996 635.904 544.005 635.169 543.928 634.589C543.87 633.99 543.715 633.516 543.464 633.168C543.232 632.82 542.894 632.578 542.449 632.443C542.024 632.288 541.492 632.211 540.854 632.211C539.984 632.211 539.153 632.337 538.36 632.588C537.567 632.82 536.862 633.062 536.243 633.313L535.518 631.631ZM539.781 643.318C540.322 643.318 540.825 643.231 541.289 643.057C541.753 642.883 542.159 642.661 542.507 642.39C542.855 642.119 543.145 641.829 543.377 641.52C543.609 641.191 543.783 640.882 543.899 640.592V638.562C542.894 638.388 541.966 638.301 541.115 638.301C540.264 638.301 539.53 638.398 538.911 638.591C538.292 638.765 537.809 639.045 537.461 639.432C537.113 639.819 536.939 640.321 536.939 640.94C536.939 641.578 537.152 642.139 537.577 642.622C538.022 643.086 538.756 643.318 539.781 643.318ZM551.544 645V643.057H555.459V632.443H551.544V630.5H556.967L557.431 632.385H557.576C558.233 631.786 558.968 631.273 559.78 630.848C560.592 630.423 561.558 630.21 562.68 630.21C563.337 630.21 563.859 630.336 564.246 630.587C564.652 630.838 564.961 631.206 565.174 631.689C565.406 632.172 565.56 632.762 565.638 633.458C565.715 634.135 565.754 634.908 565.754 635.778L563.724 635.807C563.724 634.57 563.598 633.661 563.347 633.081C563.115 632.501 562.68 632.211 562.042 632.211C561.442 632.211 560.901 632.298 560.418 632.472C559.934 632.646 559.509 632.859 559.142 633.11C558.794 633.361 558.494 633.613 558.243 633.864C557.991 634.115 557.808 634.328 557.692 634.502V643.057H563.26V645H551.544ZM567.772 630.5H571.223V627.629L573.485 626.991V630.5H581.228V632.443H573.485V639.287C573.485 640.698 573.824 641.742 574.5 642.419C575.196 643.096 576.182 643.434 577.458 643.434C578.328 643.434 579.082 643.27 579.72 642.941C580.378 642.612 580.967 642.255 581.489 641.868L582.243 643.579C581.567 644.12 580.755 644.555 579.807 644.884C578.879 645.213 577.922 645.377 576.936 645.377C576.163 645.377 575.428 645.261 574.732 645.029C574.056 644.816 573.456 644.478 572.934 644.014C572.412 643.55 571.997 642.96 571.687 642.245C571.378 641.51 571.223 640.64 571.223 639.635V632.443H567.772V630.5ZM604.493 631.631C605.324 631.148 606.262 630.8 607.306 630.587C608.35 630.374 609.374 630.268 610.38 630.268C611.366 630.268 612.168 630.423 612.787 630.732C613.425 631.041 613.918 631.447 614.266 631.95C614.633 632.433 614.875 632.994 614.991 633.632C615.126 634.251 615.194 634.879 615.194 635.517C615.194 636.252 615.174 637.035 615.136 637.866C615.097 638.697 615.068 639.529 615.049 640.36C615.049 641.327 615.107 642.245 615.223 643.115H617.166V645H613.309L613.048 642.825H612.903C612.787 642.999 612.613 643.221 612.381 643.492C612.149 643.763 611.839 644.033 611.453 644.304C611.085 644.555 610.631 644.778 610.09 644.971C609.548 645.164 608.91 645.261 608.176 645.261C606.745 645.261 605.614 644.894 604.783 644.159C603.951 643.424 603.536 642.419 603.536 641.143C603.536 640.157 603.748 639.335 604.174 638.678C604.618 638.021 605.247 637.518 606.059 637.17C606.871 636.822 607.847 636.619 608.988 636.561C610.148 636.503 611.443 636.58 612.874 636.793C612.97 635.904 612.98 635.169 612.903 634.589C612.845 633.99 612.69 633.516 612.439 633.168C612.207 632.82 611.868 632.578 611.424 632.443C610.998 632.288 610.467 632.211 609.829 632.211C608.959 632.211 608.127 632.337 607.335 632.588C606.542 632.82 605.836 633.062 605.218 633.313L604.493 631.631ZM608.756 643.318C609.297 643.318 609.8 643.231 610.264 643.057C610.728 642.883 611.134 642.661 611.482 642.39C611.83 642.119 612.12 641.829 612.352 641.52C612.584 641.191 612.758 640.882 612.874 640.592V638.562C611.868 638.388 610.94 638.301 610.09 638.301C609.239 638.301 608.504 638.398 607.886 638.591C607.267 638.765 606.784 639.045 606.436 639.432C606.088 639.819 605.914 640.321 605.914 640.94C605.914 641.578 606.126 642.139 606.552 642.622C606.996 643.086 607.731 643.318 608.756 643.318ZM629.131 630.5H633.249V640.389C633.249 641.336 633.307 642.245 633.423 643.115H635.366V645H631.509L631.422 642.535H631.306C630.804 643.366 630.137 644.043 629.305 644.565C628.474 645.087 627.469 645.348 626.289 645.348C625.4 645.348 624.636 645.242 623.998 645.029C623.38 644.836 622.867 644.488 622.461 643.985C622.055 643.482 621.756 642.815 621.562 641.984C621.369 641.133 621.272 640.08 621.272 638.823V632.443H619.329V630.5H623.534V638.359C623.534 639.152 623.563 639.867 623.621 640.505C623.699 641.124 623.844 641.655 624.056 642.1C624.269 642.525 624.578 642.854 624.984 643.086C625.41 643.299 625.97 643.405 626.666 643.405C627.672 643.405 628.542 643.076 629.276 642.419C630.03 641.762 630.601 640.94 630.987 639.954V632.443H629.131V630.5ZM636.747 630.5H640.198V627.629L642.46 626.991V630.5H650.203V632.443H642.46V639.287C642.46 640.698 642.798 641.742 643.475 642.419C644.171 643.096 645.157 643.434 646.433 643.434C647.303 643.434 648.057 643.27 648.695 642.941C649.352 642.612 649.942 642.255 650.464 641.868L651.218 643.579C650.541 644.12 649.729 644.555 648.782 644.884C647.854 645.213 646.897 645.377 645.911 645.377C645.138 645.377 644.403 645.261 643.707 645.029C643.03 644.816 642.431 644.478 641.909 644.014C641.387 643.55 640.971 642.96 640.662 642.245C640.353 641.51 640.198 640.64 640.198 639.635V632.443H636.747V630.5ZM653.208 624.7H657.732V632.298H657.877C658.476 631.621 659.172 631.099 659.965 630.732C660.757 630.345 661.743 630.152 662.923 630.152C663.851 630.152 664.653 630.249 665.33 630.442C666.026 630.635 666.586 630.974 667.012 631.457C667.456 631.94 667.785 632.607 667.998 633.458C668.21 634.289 668.317 635.353 668.317 636.648V645H666.055V637.083C666.055 636.252 666.006 635.527 665.91 634.908C665.813 634.289 665.62 633.777 665.33 633.371C665.059 632.946 664.682 632.627 664.199 632.414C663.715 632.201 663.097 632.095 662.343 632.095C661.821 632.095 661.308 632.192 660.806 632.385C660.303 632.559 659.839 632.81 659.414 633.139C659.008 633.448 658.65 633.835 658.341 634.299C658.051 634.744 657.848 635.237 657.732 635.778V645H655.499V626.643H653.208V624.7ZM685.676 643.173C685.328 643.482 684.913 643.772 684.429 644.043C683.965 644.314 683.453 644.546 682.892 644.739C682.332 644.932 681.742 645.077 681.123 645.174C680.524 645.29 679.915 645.348 679.296 645.348C678.136 645.348 677.112 645.174 676.222 644.826C675.333 644.459 674.589 643.946 673.989 643.289C673.39 642.612 672.936 641.81 672.626 640.882C672.317 639.954 672.162 638.91 672.162 637.75C672.162 636.532 672.327 635.449 672.655 634.502C673.003 633.555 673.496 632.762 674.134 632.124C674.772 631.486 675.546 631.003 676.454 630.674C677.363 630.326 678.378 630.152 679.499 630.152C680.311 630.152 681.114 630.258 681.906 630.471C682.699 630.684 683.395 631.09 683.994 631.689C684.613 632.269 685.087 633.081 685.415 634.125C685.744 635.15 685.86 636.484 685.763 638.127H674.54C674.54 639.867 675.004 641.172 675.932 642.042C676.88 642.893 678.136 643.318 679.702 643.318C680.224 643.318 680.737 643.26 681.239 643.144C681.761 643.009 682.254 642.854 682.718 642.68C683.182 642.506 683.588 642.313 683.936 642.1C684.304 641.887 684.584 641.694 684.777 641.52L685.676 643.173ZM679.557 632.066C678.919 632.066 678.31 632.134 677.73 632.269C677.17 632.404 676.667 632.636 676.222 632.965C675.797 633.274 675.439 633.69 675.149 634.212C674.879 634.715 674.705 635.343 674.627 636.097H683.646C683.55 634.821 683.134 633.835 682.399 633.139C681.684 632.424 680.737 632.066 679.557 632.066ZM690.276 635.575C690.276 635.401 690.266 635.179 690.247 634.908C690.247 634.618 690.237 634.328 690.218 634.038C690.199 633.729 690.17 633.429 690.131 633.139C690.112 632.849 690.083 632.598 690.044 632.385H688.101V630.5H691.987L692.248 632.849H692.393C692.586 632.52 692.838 632.201 693.147 631.892C693.476 631.563 693.853 631.273 694.278 631.022C694.703 630.751 695.177 630.539 695.699 630.384C696.221 630.229 696.772 630.152 697.352 630.152C698.241 630.152 699.024 630.249 699.701 630.442C700.397 630.635 700.967 630.983 701.412 631.486C701.876 631.969 702.224 632.636 702.456 633.487C702.688 634.318 702.804 635.382 702.804 636.677V645H700.542V637.112C700.542 635.507 700.281 634.299 699.759 633.487C699.237 632.675 698.29 632.269 696.917 632.269C696.414 632.269 695.921 632.375 695.438 632.588C694.974 632.781 694.549 633.042 694.162 633.371C693.775 633.7 693.437 634.086 693.147 634.531C692.857 634.956 692.644 635.411 692.509 635.894V645H690.276V635.575ZM705.722 630.5H709.173V627.629L711.435 626.991V630.5H719.178V632.443H711.435V639.287C711.435 640.698 711.773 641.742 712.45 642.419C713.146 643.096 714.132 643.434 715.408 643.434C716.278 643.434 717.032 643.27 717.67 642.941C718.327 642.612 718.917 642.255 719.439 641.868L720.193 643.579C719.516 644.12 718.704 644.555 717.757 644.884C716.829 645.213 715.872 645.377 714.886 645.377C714.112 645.377 713.378 645.261 712.682 645.029C712.005 644.816 711.406 644.478 710.884 644.014C710.362 643.55 709.946 642.96 709.637 642.245C709.327 641.51 709.173 640.64 709.173 639.635V632.443H705.722V630.5ZM725.111 645V643.057H730.157V632.443H725.111V630.5H732.477V643.057H737.407V645H725.111ZM729.374 626.382C729.374 625.86 729.548 625.415 729.896 625.048C730.244 624.661 730.689 624.468 731.23 624.468C731.791 624.468 732.255 624.661 732.622 625.048C733.009 625.415 733.202 625.86 733.202 626.382C733.202 626.885 733.009 627.31 732.622 627.658C732.255 628.006 731.791 628.18 731.23 628.18C730.689 628.18 730.244 628.006 729.896 627.658C729.548 627.31 729.374 626.885 729.374 626.382ZM752.041 632.733C751.597 632.578 751.113 632.453 750.591 632.356C750.089 632.24 749.586 632.182 749.083 632.182C747.189 632.182 745.777 632.627 744.849 633.516C743.921 634.405 743.457 635.817 743.457 637.75C743.457 638.601 743.593 639.364 743.863 640.041C744.134 640.698 744.521 641.259 745.023 641.723C745.526 642.187 746.125 642.545 746.821 642.796C747.537 643.047 748.32 643.173 749.17 643.173C750.079 643.173 750.959 643.018 751.809 642.709C752.679 642.4 753.404 641.994 753.984 641.491L754.999 643.173C754.729 643.405 754.39 643.647 753.984 643.898C753.578 644.149 753.105 644.391 752.563 644.623C752.041 644.836 751.452 645.01 750.794 645.145C750.156 645.28 749.46 645.348 748.706 645.348C747.45 645.348 746.338 645.174 745.371 644.826C744.424 644.459 743.631 643.946 742.993 643.289C742.355 642.612 741.872 641.81 741.543 640.882C741.215 639.935 741.05 638.891 741.05 637.75C741.05 636.532 741.215 635.449 741.543 634.502C741.891 633.555 742.384 632.762 743.022 632.124C743.66 631.486 744.434 631.003 745.342 630.674C746.251 630.326 747.266 630.152 748.387 630.152C749.818 630.152 750.978 630.278 751.867 630.529C752.776 630.78 753.54 631.061 754.158 631.37L754.129 631.457V635.488H752.041V632.733ZM759.686 631.631C760.517 631.148 761.455 630.8 762.499 630.587C763.543 630.374 764.567 630.268 765.573 630.268C766.559 630.268 767.361 630.423 767.98 630.732C768.618 631.041 769.111 631.447 769.459 631.95C769.826 632.433 770.068 632.994 770.184 633.632C770.319 634.251 770.387 634.879 770.387 635.517C770.387 636.252 770.368 637.035 770.329 637.866C770.29 638.697 770.261 639.529 770.242 640.36C770.242 641.327 770.3 642.245 770.416 643.115H772.359V645H768.502L768.241 642.825H768.096C767.98 642.999 767.806 643.221 767.574 643.492C767.342 643.763 767.033 644.033 766.646 644.304C766.279 644.555 765.824 644.778 765.283 644.971C764.741 645.164 764.103 645.261 763.369 645.261C761.938 645.261 760.807 644.894 759.976 644.159C759.144 643.424 758.729 642.419 758.729 641.143C758.729 640.157 758.941 639.335 759.367 638.678C759.811 638.021 760.44 637.518 761.252 637.17C762.064 636.822 763.04 636.619 764.181 636.561C765.341 636.503 766.636 636.58 768.067 636.793C768.164 635.904 768.173 635.169 768.096 634.589C768.038 633.99 767.883 633.516 767.632 633.168C767.4 632.82 767.061 632.578 766.617 632.443C766.192 632.288 765.66 632.211 765.022 632.211C764.152 632.211 763.32 632.337 762.528 632.588C761.735 632.82 761.029 633.062 760.411 633.313L759.686 631.631ZM763.949 643.318C764.49 643.318 764.993 643.231 765.457 643.057C765.921 642.883 766.327 642.661 766.675 642.39C767.023 642.119 767.313 641.829 767.545 641.52C767.777 641.191 767.951 640.882 768.067 640.592V638.562C767.062 638.388 766.134 638.301 765.283 638.301C764.432 638.301 763.697 638.398 763.079 638.591C762.46 638.765 761.977 639.045 761.629 639.432C761.281 639.819 761.107 640.321 761.107 640.94C761.107 641.578 761.319 642.139 761.745 642.622C762.189 643.086 762.924 643.318 763.949 643.318ZM774.696 630.5H778.147V627.629L780.409 626.991V630.5H788.152V632.443H780.409V639.287C780.409 640.698 780.748 641.742 781.424 642.419C782.12 643.096 783.106 643.434 784.382 643.434C785.252 643.434 786.006 643.27 786.644 642.941C787.302 642.612 787.891 642.255 788.413 641.868L789.167 643.579C788.491 644.12 787.679 644.555 786.731 644.884C785.803 645.213 784.846 645.377 783.86 645.377C783.087 645.377 782.352 645.261 781.656 645.029C780.98 644.816 780.38 644.478 779.858 644.014C779.336 643.55 778.921 642.96 778.611 642.245C778.302 641.51 778.147 640.64 778.147 639.635V632.443H774.696V630.5ZM794.086 645V643.057H799.132V632.443H794.086V630.5H801.452V643.057H806.382V645H794.086ZM798.349 626.382C798.349 625.86 798.523 625.415 798.871 625.048C799.219 624.661 799.664 624.468 800.205 624.468C800.766 624.468 801.23 624.661 801.597 625.048C801.984 625.415 802.177 625.86 802.177 626.382C802.177 626.885 801.984 627.31 801.597 627.658C801.23 628.006 800.766 628.18 800.205 628.18C799.664 628.18 799.219 628.006 798.871 627.658C798.523 627.31 798.349 626.885 798.349 626.382ZM809.938 637.75C809.938 635.411 810.547 633.564 811.765 632.211C812.983 630.838 814.723 630.152 816.985 630.152C818.203 630.152 819.247 630.355 820.117 630.761C821.006 631.148 821.741 631.679 822.321 632.356C822.901 633.033 823.326 633.835 823.597 634.763C823.887 635.691 824.032 636.687 824.032 637.75C824.032 638.91 823.877 639.964 823.568 640.911C823.259 641.839 822.804 642.632 822.205 643.289C821.606 643.946 820.861 644.459 819.972 644.826C819.102 645.174 818.106 645.348 816.985 645.348C815.786 645.348 814.742 645.155 813.853 644.768C812.964 644.362 812.229 643.821 811.649 643.144C811.069 642.467 810.634 641.665 810.344 640.737C810.073 639.809 809.938 638.813 809.938 637.75ZM812.345 637.75C812.345 638.427 812.422 639.103 812.577 639.78C812.751 640.457 813.022 641.066 813.389 641.607C813.756 642.148 814.23 642.583 814.81 642.912C815.409 643.241 816.134 643.405 816.985 643.405C818.532 643.405 819.692 642.931 820.465 641.984C821.258 641.017 821.654 639.606 821.654 637.75C821.654 637.054 821.567 636.377 821.393 635.72C821.238 635.043 820.968 634.434 820.581 633.893C820.214 633.352 819.73 632.917 819.131 632.588C818.551 632.259 817.836 632.095 816.985 632.095C815.438 632.095 814.278 632.569 813.505 633.516C812.732 634.463 812.345 635.875 812.345 637.75ZM828.226 635.575C828.226 635.401 828.216 635.179 828.197 634.908C828.197 634.618 828.187 634.328 828.168 634.038C828.148 633.729 828.119 633.429 828.081 633.139C828.061 632.849 828.032 632.598 827.994 632.385H826.051V630.5H829.937L830.198 632.849H830.343C830.536 632.52 830.787 632.201 831.097 631.892C831.425 631.563 831.802 631.273 832.228 631.022C832.653 630.751 833.127 630.539 833.649 630.384C834.171 630.229 834.722 630.152 835.302 630.152C836.191 630.152 836.974 630.249 837.651 630.442C838.347 630.635 838.917 630.983 839.362 631.486C839.826 631.969 840.174 632.636 840.406 633.487C840.638 634.318 840.754 635.382 840.754 636.677V645H838.492V637.112C838.492 635.507 838.231 634.299 837.709 633.487C837.187 632.675 836.239 632.269 834.867 632.269C834.364 632.269 833.871 632.375 833.388 632.588C832.924 632.781 832.498 633.042 832.112 633.371C831.725 633.7 831.387 634.086 831.097 634.531C830.807 634.956 830.594 635.411 830.459 635.894V645H828.226V635.575ZM862.8 635.575C862.8 635.401 862.79 635.179 862.771 634.908C862.771 634.618 862.761 634.328 862.742 634.038C862.723 633.729 862.694 633.429 862.655 633.139C862.636 632.849 862.607 632.598 862.568 632.385H860.625V630.5H864.482L864.772 632.53H864.917C865.439 631.853 866.096 631.293 866.889 630.848C867.701 630.384 868.687 630.152 869.847 630.152C871.916 630.152 873.472 630.722 874.516 631.863C875.56 633.004 876.082 634.869 876.082 637.46C876.082 638.678 875.898 639.78 875.531 640.766C875.183 641.733 874.68 642.554 874.023 643.231C873.366 643.908 872.573 644.43 871.645 644.797C870.717 645.164 869.692 645.348 868.571 645.348C868.165 645.348 867.798 645.329 867.469 645.29C867.16 645.271 866.87 645.232 866.599 645.174C866.348 645.135 866.096 645.077 865.845 645C865.594 644.923 865.323 644.826 865.033 644.71V650.8H862.8V635.575ZM869.47 632.269C868.89 632.269 868.339 632.375 867.817 632.588C867.314 632.801 866.86 633.081 866.454 633.429C866.067 633.777 865.748 634.164 865.497 634.589C865.246 635.014 865.091 635.44 865.033 635.865V642.477C865.458 642.767 865.932 642.999 866.454 643.173C866.995 643.328 867.701 643.405 868.571 643.405C870.118 643.405 871.355 642.902 872.283 641.897C873.211 640.872 873.675 639.384 873.675 637.431C873.675 635.788 873.346 634.521 872.689 633.632C872.051 632.723 870.978 632.269 869.47 632.269ZM879.174 645V643.057H883.089V632.443H879.174V630.5H884.597L885.061 632.385H885.206C885.863 631.786 886.598 631.273 887.41 630.848C888.222 630.423 889.188 630.21 890.31 630.21C890.967 630.21 891.489 630.336 891.876 630.587C892.282 630.838 892.591 631.206 892.804 631.689C893.036 632.172 893.19 632.762 893.268 633.458C893.345 634.135 893.384 634.908 893.384 635.778L891.354 635.807C891.354 634.57 891.228 633.661 890.977 633.081C890.745 632.501 890.31 632.211 889.672 632.211C889.072 632.211 888.531 632.298 888.048 632.472C887.564 632.646 887.139 632.859 886.772 633.11C886.424 633.361 886.124 633.613 885.873 633.864C885.621 634.115 885.438 634.328 885.322 634.502V643.057H890.89V645H879.174ZM896.156 637.75C896.156 635.411 896.765 633.564 897.983 632.211C899.201 630.838 900.941 630.152 903.203 630.152C904.421 630.152 905.465 630.355 906.335 630.761C907.225 631.148 907.959 631.679 908.539 632.356C909.119 633.033 909.545 633.835 909.815 634.763C910.105 635.691 910.25 636.687 910.25 637.75C910.25 638.91 910.096 639.964 909.786 640.911C909.477 641.839 909.023 642.632 908.423 643.289C907.824 643.946 907.08 644.459 906.19 644.826C905.32 645.174 904.325 645.348 903.203 645.348C902.005 645.348 900.961 645.155 900.071 644.768C899.182 644.362 898.447 643.821 897.867 643.144C897.287 642.467 896.852 641.665 896.562 640.737C896.292 639.809 896.156 638.813 896.156 637.75ZM898.563 637.75C898.563 638.427 898.641 639.103 898.795 639.78C898.969 640.457 899.24 641.066 899.607 641.607C899.975 642.148 900.448 642.583 901.028 642.912C901.628 643.241 902.353 643.405 903.203 643.405C904.75 643.405 905.91 642.931 906.683 641.984C907.476 641.017 907.872 639.606 907.872 637.75C907.872 637.054 907.785 636.377 907.611 635.72C907.457 635.043 907.186 634.434 906.799 633.893C906.432 633.352 905.949 632.917 905.349 632.588C904.769 632.259 904.054 632.095 903.203 632.095C901.657 632.095 900.497 632.569 899.723 633.516C898.95 634.463 898.563 635.875 898.563 637.75ZM920.505 642.187H920.824L925.377 630.5H927.9L921.781 645H919.229L912.994 630.5H915.662L920.505 642.187ZM932.036 645V643.057H937.082V632.443H932.036V630.5H939.402V643.057H944.332V645H932.036ZM936.299 626.382C936.299 625.86 936.473 625.415 936.821 625.048C937.169 624.661 937.613 624.468 938.155 624.468C938.715 624.468 939.179 624.661 939.547 625.048C939.933 625.415 940.127 625.86 940.127 626.382C940.127 626.885 939.933 627.31 939.547 627.658C939.179 628.006 938.715 628.18 938.155 628.18C937.613 628.18 937.169 628.006 936.821 627.658C936.473 627.31 936.299 626.885 936.299 626.382ZM956.355 624.7H961.053V640.041C961.053 640.215 961.063 640.437 961.082 640.708C961.102 640.959 961.121 641.23 961.14 641.52C961.179 641.81 961.218 642.1 961.256 642.39C961.295 642.661 961.334 642.902 961.372 643.115H963.315V645H959.458L959.168 642.767H959.052C958.627 643.502 957.989 644.12 957.138 644.623C956.307 645.106 955.34 645.348 954.238 645.348C952.054 645.348 950.439 644.739 949.395 643.521C948.371 642.284 947.858 640.37 947.858 637.779C947.858 636.561 948.032 635.488 948.38 634.56C948.728 633.613 949.221 632.83 949.859 632.211C950.517 631.573 951.3 631.09 952.208 630.761C953.117 630.432 954.132 630.268 955.253 630.268C955.659 630.268 956.017 630.278 956.326 630.297C956.655 630.316 956.955 630.345 957.225 630.384C957.496 630.423 957.747 630.481 957.979 630.558C958.231 630.616 958.501 630.684 958.791 630.761V626.643H956.355V624.7ZM954.615 643.405C955.795 643.405 956.723 643.105 957.399 642.506C958.076 641.887 958.54 640.969 958.791 639.751V633.023C958.366 632.733 957.883 632.52 957.341 632.385C956.819 632.25 956.123 632.182 955.253 632.182C953.707 632.182 952.489 632.636 951.599 633.545C950.71 634.434 950.265 635.846 950.265 637.779C950.265 638.572 950.333 639.316 950.468 640.012C950.623 640.689 950.865 641.278 951.193 641.781C951.541 642.284 951.996 642.68 952.556 642.97C953.117 643.26 953.803 643.405 954.615 643.405ZM978.819 643.173C978.471 643.482 978.055 643.772 977.572 644.043C977.108 644.314 976.596 644.546 976.035 644.739C975.474 644.932 974.885 645.077 974.266 645.174C973.667 645.29 973.058 645.348 972.439 645.348C971.279 645.348 970.254 645.174 969.365 644.826C968.476 644.459 967.731 643.946 967.132 643.289C966.533 642.612 966.078 641.81 965.769 640.882C965.46 639.954 965.305 638.91 965.305 637.75C965.305 636.532 965.469 635.449 965.798 634.502C966.146 633.555 966.639 632.762 967.277 632.124C967.915 631.486 968.688 631.003 969.597 630.674C970.506 630.326 971.521 630.152 972.642 630.152C973.454 630.152 974.256 630.258 975.049 630.471C975.842 630.684 976.538 631.09 977.137 631.689C977.756 632.269 978.229 633.081 978.558 634.125C978.887 635.15 979.003 636.484 978.906 638.127H967.683C967.683 639.867 968.147 641.172 969.075 642.042C970.022 642.893 971.279 643.318 972.845 643.318C973.367 643.318 973.879 643.26 974.382 643.144C974.904 643.009 975.397 642.854 975.861 642.68C976.325 642.506 976.731 642.313 977.079 642.1C977.446 641.887 977.727 641.694 977.92 641.52L978.819 643.173ZM972.7 632.066C972.062 632.066 971.453 632.134 970.873 632.269C970.312 632.404 969.81 632.636 969.365 632.965C968.94 633.274 968.582 633.69 968.292 634.212C968.021 634.715 967.847 635.343 967.77 636.097H976.789C976.692 634.821 976.277 633.835 975.542 633.139C974.827 632.424 973.879 632.066 972.7 632.066ZM982.636 645V643.057H986.551V632.443H982.636V630.5H988.059L988.523 632.385H988.668C989.325 631.786 990.06 631.273 990.872 630.848C991.684 630.423 992.65 630.21 993.772 630.21C994.429 630.21 994.951 630.336 995.338 630.587C995.744 630.838 996.053 631.206 996.266 631.689C996.498 632.172 996.652 632.762 996.73 633.458C996.807 634.135 996.846 634.908 996.846 635.778L994.816 635.807C994.816 634.57 994.69 633.661 994.439 633.081C994.207 632.501 993.772 632.211 993.134 632.211C992.534 632.211 991.993 632.298 991.51 632.472C991.026 632.646 990.601 632.859 990.234 633.11C989.886 633.361 989.586 633.613 989.335 633.864C989.083 634.115 988.9 634.328 988.784 634.502V643.057H994.352V645H982.636ZM1017.76 645V643.057H1021.21V632.443H1017.76V630.5H1021.21V629.688C1021.21 627.871 1021.69 626.556 1022.63 625.744C1023.58 624.932 1024.93 624.526 1026.69 624.526C1027.33 624.526 1027.9 624.565 1028.4 624.642C1028.91 624.719 1029.45 624.874 1030.03 625.106L1029.51 626.991C1029 626.778 1028.52 626.643 1028.06 626.585C1027.59 626.508 1027.17 626.469 1026.78 626.469C1025.5 626.469 1024.63 626.788 1024.17 627.426C1023.71 628.045 1023.47 629.069 1023.47 630.5H1029.48V632.443H1023.47V643.057H1029.48V645H1017.76ZM1034.11 637.75C1034.11 635.411 1034.71 633.564 1035.93 632.211C1037.15 630.838 1038.89 630.152 1041.15 630.152C1042.37 630.152 1043.41 630.355 1044.28 630.761C1045.17 631.148 1045.91 631.679 1046.49 632.356C1047.07 633.033 1047.49 633.835 1047.76 634.763C1048.05 635.691 1048.2 636.687 1048.2 637.75C1048.2 638.91 1048.04 639.964 1047.74 640.911C1047.43 641.839 1046.97 642.632 1046.37 643.289C1045.77 643.946 1045.03 644.459 1044.14 644.826C1043.27 645.174 1042.27 645.348 1041.15 645.348C1039.95 645.348 1038.91 645.155 1038.02 644.768C1037.13 644.362 1036.4 643.821 1035.82 643.144C1035.24 642.467 1034.8 641.665 1034.51 640.737C1034.24 639.809 1034.11 638.813 1034.11 637.75ZM1036.51 637.75C1036.51 638.427 1036.59 639.103 1036.74 639.78C1036.92 640.457 1037.19 641.066 1037.56 641.607C1037.92 642.148 1038.4 642.583 1038.98 642.912C1039.58 643.241 1040.3 643.405 1041.15 643.405C1042.7 643.405 1043.86 642.931 1044.63 641.984C1045.43 641.017 1045.82 639.606 1045.82 637.75C1045.82 637.054 1045.73 636.377 1045.56 635.72C1045.41 635.043 1045.14 634.434 1044.75 633.893C1044.38 633.352 1043.9 632.917 1043.3 632.588C1042.72 632.259 1042 632.095 1041.15 632.095C1039.61 632.095 1038.45 632.569 1037.67 633.516C1036.9 634.463 1036.51 635.875 1036.51 637.75ZM1051.61 645V643.057H1055.53V632.443H1051.61V630.5H1057.03L1057.5 632.385H1057.64C1058.3 631.786 1059.03 631.273 1059.85 630.848C1060.66 630.423 1061.62 630.21 1062.75 630.21C1063.4 630.21 1063.93 630.336 1064.31 630.587C1064.72 630.838 1065.03 631.206 1065.24 631.689C1065.47 632.172 1065.63 632.762 1065.7 633.458C1065.78 634.135 1065.82 634.908 1065.82 635.778L1063.79 635.807C1063.79 634.57 1063.66 633.661 1063.41 633.081C1063.18 632.501 1062.75 632.211 1062.11 632.211C1061.51 632.211 1060.97 632.298 1060.48 632.472C1060 632.646 1059.58 632.859 1059.21 633.11C1058.86 633.361 1058.56 633.613 1058.31 633.864C1058.06 634.115 1057.87 634.328 1057.76 634.502V643.057H1063.33V645H1051.61ZM1087 624.7H1098.48V637.808C1098.48 640.244 1097.9 642.1 1096.74 643.376C1095.58 644.652 1093.91 645.29 1091.72 645.29C1091.16 645.29 1090.61 645.242 1090.07 645.145C1089.53 645.048 1089.03 644.923 1088.56 644.768C1088.1 644.594 1087.69 644.41 1087.34 644.217C1087.02 644.024 1086.77 643.84 1086.62 643.666L1087.66 641.752C1087.88 641.887 1088.11 642.032 1088.36 642.187C1088.63 642.342 1088.92 642.496 1089.23 642.651C1089.56 642.786 1089.92 642.902 1090.3 642.999C1090.71 643.096 1091.16 643.144 1091.67 643.144C1093.12 643.144 1094.21 642.69 1094.94 641.781C1095.7 640.872 1096.07 639.403 1096.07 637.373V626.846H1087V624.7ZM1105.78 642.129C1106.36 642.438 1107 642.699 1107.72 642.912C1108.45 643.105 1109.19 643.202 1109.92 643.202C1110.56 643.202 1111.16 643.144 1111.72 643.028C1112.28 642.893 1112.77 642.69 1113.17 642.419C1113.6 642.129 1113.93 641.771 1114.16 641.346C1114.41 640.921 1114.54 640.418 1114.54 639.838C1114.54 639.045 1114.26 638.398 1113.72 637.895C1113.2 637.392 1112.54 636.948 1111.75 636.561C1110.96 636.174 1110.1 635.797 1109.17 635.43C1108.24 635.063 1107.38 634.628 1106.59 634.125C1105.8 633.622 1105.13 633.013 1104.59 632.298C1104.07 631.563 1103.81 630.635 1103.81 629.514C1103.81 628.721 1103.96 628.006 1104.27 627.368C1104.6 626.73 1105.05 626.189 1105.63 625.744C1106.21 625.299 1106.91 624.961 1107.72 624.729C1108.55 624.478 1109.47 624.352 1110.48 624.352C1111.64 624.352 1112.69 624.439 1113.64 624.613C1114.58 624.768 1115.34 624.98 1115.9 625.251L1115.96 625.222V625.28H1115.99L1115.96 625.367V630.007H1113.81V626.904C1113.33 626.788 1112.8 626.691 1112.22 626.614C1111.64 626.537 1111.02 626.498 1110.36 626.498C1109.72 626.498 1109.14 626.575 1108.62 626.73C1108.12 626.885 1107.68 627.097 1107.31 627.368C1106.97 627.619 1106.7 627.919 1106.5 628.267C1106.31 628.615 1106.21 628.982 1106.21 629.369C1106.21 630.123 1106.47 630.751 1107 631.254C1107.54 631.757 1108.2 632.211 1109 632.617C1109.79 633.004 1110.65 633.39 1111.58 633.777C1112.51 634.164 1113.37 634.618 1114.16 635.14C1114.95 635.643 1115.61 636.252 1116.13 636.967C1116.67 637.682 1116.94 638.572 1116.94 639.635C1116.94 640.505 1116.78 641.288 1116.45 641.984C1116.14 642.68 1115.69 643.279 1115.09 643.782C1114.51 644.285 1113.78 644.671 1112.91 644.942C1112.06 645.213 1111.09 645.348 1110.01 645.348C1109.28 645.348 1108.58 645.29 1107.92 645.174C1107.27 645.058 1106.66 644.913 1106.1 644.739C1105.55 644.565 1105.06 644.381 1104.62 644.188C1104.19 643.995 1103.85 643.83 1103.6 643.695L1103.63 643.608V638.91H1105.78V642.129ZM1129.2 630.5H1133.32V640.389C1133.32 641.336 1133.37 642.245 1133.49 643.115H1135.43V645H1131.58L1131.49 642.535H1131.37C1130.87 643.366 1130.2 644.043 1129.37 644.565C1128.54 645.087 1127.54 645.348 1126.36 645.348C1125.47 645.348 1124.7 645.242 1124.06 645.029C1123.45 644.836 1122.93 644.488 1122.53 643.985C1122.12 643.482 1121.82 642.815 1121.63 641.984C1121.44 641.133 1121.34 640.08 1121.34 638.823V632.443H1119.4V630.5H1123.6V638.359C1123.6 639.152 1123.63 639.867 1123.69 640.505C1123.77 641.124 1123.91 641.655 1124.12 642.1C1124.34 642.525 1124.64 642.854 1125.05 643.086C1125.48 643.299 1126.04 643.405 1126.73 643.405C1127.74 643.405 1128.61 643.076 1129.34 642.419C1130.1 641.762 1130.67 640.94 1131.05 639.954V632.443H1129.2V630.5ZM1138.96 645V643.057H1144.01V632.443H1138.96V630.5H1146.33V643.057H1151.26V645H1138.96ZM1143.22 626.382C1143.22 625.86 1143.4 625.415 1143.74 625.048C1144.09 624.661 1144.54 624.468 1145.08 624.468C1145.64 624.468 1146.1 624.661 1146.47 625.048C1146.86 625.415 1147.05 625.86 1147.05 626.382C1147.05 626.885 1146.86 627.31 1146.47 627.658C1146.1 628.006 1145.64 628.18 1145.08 628.18C1144.54 628.18 1144.09 628.006 1143.74 627.658C1143.4 627.31 1143.22 626.885 1143.22 626.382ZM1154.06 630.5H1157.51V627.629L1159.77 626.991V630.5H1167.51V632.443H1159.77V639.287C1159.77 640.698 1160.11 641.742 1160.79 642.419C1161.48 643.096 1162.47 643.434 1163.74 643.434C1164.61 643.434 1165.37 643.27 1166.01 642.941C1166.66 642.612 1167.25 642.255 1167.77 641.868L1168.53 643.579C1167.85 644.12 1167.04 644.555 1166.09 644.884C1165.16 645.213 1164.21 645.377 1163.22 645.377C1162.45 645.377 1161.71 645.261 1161.02 645.029C1160.34 644.816 1159.74 644.478 1159.22 644.014C1158.7 643.55 1158.28 642.96 1157.97 642.245C1157.66 641.51 1157.51 640.64 1157.51 639.635V632.443H1154.06V630.5ZM1185.74 643.173C1185.39 643.482 1184.98 643.772 1184.5 644.043C1184.03 644.314 1183.52 644.546 1182.96 644.739C1182.4 644.932 1181.81 645.077 1181.19 645.174C1180.59 645.29 1179.98 645.348 1179.36 645.348C1178.2 645.348 1177.18 645.174 1176.29 644.826C1175.4 644.459 1174.66 643.946 1174.06 643.289C1173.46 642.612 1173 641.81 1172.69 640.882C1172.38 639.954 1172.23 638.91 1172.23 637.75C1172.23 636.532 1172.39 635.449 1172.72 634.502C1173.07 633.555 1173.56 632.762 1174.2 632.124C1174.84 631.486 1175.61 631.003 1176.52 630.674C1177.43 630.326 1178.44 630.152 1179.57 630.152C1180.38 630.152 1181.18 630.258 1181.97 630.471C1182.77 630.684 1183.46 631.09 1184.06 631.689C1184.68 632.269 1185.15 633.081 1185.48 634.125C1185.81 635.15 1185.93 636.484 1185.83 638.127H1174.61C1174.61 639.867 1175.07 641.172 1176 642.042C1176.95 642.893 1178.2 643.318 1179.77 643.318C1180.29 643.318 1180.8 643.26 1181.31 643.144C1181.83 643.009 1182.32 642.854 1182.78 642.68C1183.25 642.506 1183.65 642.313 1184 642.1C1184.37 641.887 1184.65 641.694 1184.84 641.52L1185.74 643.173ZM1179.62 632.066C1178.99 632.066 1178.38 632.134 1177.8 632.269C1177.24 632.404 1176.73 632.636 1176.29 632.965C1175.86 633.274 1175.51 633.69 1175.22 634.212C1174.95 634.715 1174.77 635.343 1174.69 636.097H1183.71C1183.62 634.821 1183.2 633.835 1182.47 633.139C1181.75 632.424 1180.8 632.066 1179.62 632.066ZM1194.4 643.405C1194.4 642.786 1194.58 642.313 1194.92 641.984C1195.27 641.636 1195.74 641.462 1196.32 641.462C1196.94 641.462 1197.42 641.636 1197.77 641.984C1198.11 642.313 1198.29 642.786 1198.29 643.405C1198.29 643.966 1198.11 644.43 1197.77 644.797C1197.42 645.164 1196.94 645.348 1196.32 645.348C1195.74 645.348 1195.27 645.164 1194.92 644.797C1194.58 644.43 1194.4 643.966 1194.4 643.405Z" fill="white"/>
<path d="M1002 206.82L1019.95 134L1090.41 151.37L1087.48 163.286L1251.01 203.597L1236 264.501L1192.12 253.686L1201.26 216.614L1166.69 208.093L1169.15 238.191L1135.91 229.998L1142.76 202.194L1081.6 187.118L1072.46 224.19L1002 206.82Z" fill="white" stroke="#ECE4E4" stroke-width="8"/>
<rect x="126.353" y="73.0763" width="34.1346" height="31.8534" transform="rotate(-16.1825 126.353 73.0763)" fill="white" stroke="#E5E5E5" stroke-width="8"/>
<rect x="175.758" y="58.7391" width="34.6245" height="31.8534" transform="rotate(-16.1825 175.758 58.7391)" fill="white" stroke="#E5E5E5" stroke-width="8"/>
<rect x="225.163" y="44.4019" width="34.6245" height="31.8534" transform="rotate(-16.1825 225.163 44.4019)" fill="white" stroke="#E5E5E5" stroke-width="8"/>
<rect x="275.039" y="29.9282" width="34.1346" height="31.8534" transform="rotate(-16.1825 275.039 29.9282)" fill="white" stroke="#E5E5E5" stroke-width="8"/>
<path d="M420.5 95C246.5 138.2 168 115.5 150 97.5" stroke="#ECE4E4" stroke-width="8"/>
<path d="M420.5 255C239.3 233.4 200 130 203 81" stroke="#ECE4E4" stroke-width="8"/>
<path d="M423.5 423C291.9 419.8 255.333 185 253.5 68" stroke="#ECE4E4" stroke-width="8"/>
<path d="M422 530C356.5 563.5 313 209.5 300.5 54.5" stroke="#ECE4E4" stroke-width="8"/>
<path d="M152.5 180.5L-0.5 96.5L-1 655H1447.5V393L1246.5 535.781L1085 591L734.5 624L419.5 612L386 490.5L209.5 357L152.5 180.5Z" fill="url(#paint0_linear_19_14)" stroke="black"/>
<defs>
<linearGradient id="paint0_linear_19_14" x1="36" y1="129.5" x2="1190" y2="599.5" gradientUnits="userSpaceOnUse">
<stop stop-color="#FF3D00"/>
<stop offset="1" stop-color="#9E00FF"/>
</linearGradient>
</defs>
</svg>
