<svg width="105" height="143" viewBox="0 0 105 143" fill="none" xmlns="http://www.w3.org/2000/svg">
<path d="M49.836 0.43149C61.2323 0.43149 70.4807 2.48999 77.581 6.60699C84.741 10.724 90.2303 16.3028 94.049 23.3435C97.9273 30.3842 100.583 38.3497 102.015 47.24C103.447 56.0707 104.163 65.2295 104.163 74.7165C104.163 89.7525 103.447 102.282 102.015 112.306C100.642 122.33 98.0168 129.819 94.1385 134.771C90.3198 139.783 84.8007 142.289 77.581 142.289C72.6287 142.289 68.6012 140.827 65.4985 137.904C62.4555 135.04 60.1882 131.609 58.6965 127.611C57.2048 123.673 56.459 120.123 56.459 116.96H55.743C54.6093 119.765 52.9983 122.509 50.91 125.194C48.8813 127.82 46.256 129.968 43.034 131.639C39.812 133.369 35.874 134.234 31.22 134.234C24.597 134.234 19.2867 132.444 15.289 128.864C11.2913 125.344 8.36767 120.511 6.518 114.365C4.728 108.16 3.833 101.119 3.833 93.243C3.833 77.849 6.90583 66.2737 13.0515 58.517C19.2568 50.7007 28.0577 46.7925 39.454 46.7925C43.6903 46.7925 47.8372 47.2698 51.8945 48.2245C55.9518 49.1792 60.4865 50.999 65.4985 53.684V106.668C65.4985 112.814 66.0057 117.527 67.02 120.809C68.0343 124.031 69.4067 126.239 71.137 127.432C72.927 128.685 74.9557 129.312 77.223 129.312C80.6837 129.312 83.1598 127.014 84.6515 122.42C86.1432 117.766 87.0382 111.352 87.3365 103.177C87.6348 95.0032 87.784 85.6653 87.784 75.164C87.784 66.4527 87.2768 58.3977 86.2625 50.999C85.3078 43.6003 83.488 37.1563 80.803 31.667C78.1777 26.1777 74.359 21.9115 69.347 18.8685C64.335 15.7658 57.8015 14.2145 49.7465 14.2145C43.8395 14.2145 37.5148 15.3183 30.7725 17.526C24.0302 19.7337 16.9 24.1192 9.382 30.6825L0.3425 20.211C8.3975 13.1703 16.6017 8.12849 24.955 5.08549C33.3083 1.98282 41.602 0.43149 49.836 0.43149ZM39.991 58.9645C32.3537 58.9645 27.1328 61.7987 24.3285 67.467C21.5838 73.1353 20.2115 81.7273 20.2115 93.243C20.2115 101.895 21.1662 108.846 23.0755 114.096C24.9848 119.287 28.4753 121.883 33.547 121.883C37.4253 121.883 40.4982 120.988 42.7655 119.198C45.0328 117.408 46.7333 115.32 47.867 112.933C49.0603 110.546 49.9852 108.458 50.6415 106.668V61.4705C47.3598 59.7998 43.8097 58.9645 39.991 58.9645Z" fill="url(#paint0_linear_17_2)"/>
<defs>
<linearGradient id="paint0_linear_17_2" x1="386.5" y1="-51" x2="386.5" y2="133" gradientUnits="userSpaceOnUse">
<stop stop-color="#FF7A00"/>
<stop offset="1" stop-color="#FF006B"/>
</linearGradient>
</defs>
</svg>
